{
	"asset":{
		"generator":"Khronos glTF Blender I/O v5.0.21",
		"version":"2.0"
	},
	"scene":0,
	"scenes":[
		{
			"name":"Scene",
			"nodes":[
				0
			]
		}
	],
	"nodes":[
		{
			"mesh":0,
			"name":"Crate",
			"scale":[
				1,
				1,
				1.2000000476837158
			],
			"translation":[
				0,
				1,
				0
			]
		}
	],
	"materials":[
		{
			"doubleSided":true,
			"name":"Wood",
			"pbrMetallicRoughness":{
				"baseColorTexture":{
					"index":0
				},
				"metallicFactor":0,
				"roughnessFactor":0.5
			}
		},
		{
			"doubleSided":true,
			"name":"WoodPlank",
			"pbrMetallicRoughness":{
				"baseColorTexture":{
					"index":1
				},
				"metallicFactor":0,
				"roughnessFactor":0.5
			}
		}
	],
	"meshes":[
		{
			"name":"Crate",
			"primitives":[
				{
					"attributes":{
						"POSITION":0,
						"NORMAL":1,
						"TEXCOORD_0":2
					},
					"indices":3,
					"material":0
				},
				{
					"attributes":{
						"POSITION":4,
						"NORMAL":5,
						"TEXCOORD_0":6
					},
					"indices":7,
					"material":1
				}
			]
		}
	],
	"textures":[
		{
			"sampler":0,
			"source":0
		},
		{
			"sampler":0,
			"source":1
		}
	],
	"images":[
		{
			"mimeType":"image/png",
			"name":"wooden-plank-texture",
			"uri":"crateTextures/wooden-plank-texture.png"
		},
		{
			"mimeType":"image/jpeg",
			"name":"oakboard",
			"uri":"crateTextures/oakboard.jpg"
		}
	],
	"accessors":[
		{
			"bufferView":0,
			"componentType":5126,
			"count":82,
			"max":[
				0.9599999785423279,
				0.9600002765655518,
				1
			],
			"min":[
				-1,
				-0.9599999785423279,
				-1.0000001192092896
			],
			"type":"VEC3"
		},
		{
			"bufferView":1,
			"componentType":5126,
			"count":82,
			"type":"VEC3"
		},
		{
			"bufferView":2,
			"componentType":5126,
			"count":82,
			"type":"VEC2"
		},
		{
			"bufferView":3,
			"componentType":5123,
			"count":114,
			"type":"SCALAR"
		},
		{
			"bufferView":4,
			"componentType":5126,
			"count":583,
			"max":[
				1,
				1.0000003576278687,
				1
			],
			"min":[
				-1,
				-1,
				-1.0000001192092896
			],
			"type":"VEC3"
		},
		{
			"bufferView":5,
			"componentType":5126,
			"count":583,
			"type":"VEC3"
		},
		{
			"bufferView":6,
			"componentType":5126,
			"count":583,
			"type":"VEC2"
		},
		{
			"bufferView":7,
			"componentType":5123,
			"count":981,
			"type":"SCALAR"
		}
	],
	"bufferViews":[
		{
			"buffer":0,
			"byteLength":984,
			"byteOffset":0,
			"target":34962
		},
		{
			"buffer":0,
			"byteLength":984,
			"byteOffset":984,
			"target":34962
		},
		{
			"buffer":0,
			"byteLength":656,
			"byteOffset":1968,
			"target":34962
		},
		{
			"buffer":0,
			"byteLength":228,
			"byteOffset":2624,
			"target":34963
		},
		{
			"buffer":0,
			"byteLength":6996,
			"byteOffset":2852,
			"target":34962
		},
		{
			"buffer":0,
			"byteLength":6996,
			"byteOffset":9848,
			"target":34962
		},
		{
			"buffer":0,
			"byteLength":4664,
			"byteOffset":16844,
			"target":34962
		},
		{
			"buffer":0,
			"byteLength":1962,
			"byteOffset":21508,
			"target":34963
		}
	],
	"samplers":[
		{
			"magFilter":9729,
			"minFilter":9987
		}
	],
	"buffers":[
		{
			"byteLength":23472,
			"uri":"crate.bin"
		}
	]
}
