{
	"asset":{
		"generator":"Khronos glTF Blender I/O v5.0.21",
		"version":"2.0"
	},
	"scene":0,
	"scenes":[
		{
			"name":"Scene",
			"nodes":[
				0
			]
		}
	],
	"nodes":[
		{
			"mesh":0,
			"name":"Character",
			"scale":[
				1,
				1.7272000312805176,
				1
			],
			"translation":[
				0,
				1.7272000312805176,
				0
			]
		}
	],
	"materials":[
		{
			"doubleSided":true,
			"name":"Material",
			"pbrMetallicRoughness":{
				"baseColorFactor":[
					0.800000011920929,
					0.800000011920929,
					0.800000011920929,
					1
				],
				"metallicFactor":0,
				"roughnessFactor":0.5
			}
		}
	],
	"meshes":[
		{
			"name":"CharacterMesh",
			"primitives":[
				{
					"attributes":{
						"POSITION":0,
						"NORMAL":1,
						"TEXCOORD_0":2
					},
					"indices":3,
					"material":0
				}
			]
		}
	],
	"accessors":[
		{
			"bufferView":0,
			"componentType":5126,
			"count":751,
			"max":[
				0.6649978160858154,
				-0.00021130417007952929,
				0.10630533844232559
			],
			"min":[
				-0.6649978160858154,
				-0.9947230815887451,
				-0.19178664684295654
			],
			"type":"VEC3"
		},
		{
			"bufferView":1,
			"componentType":5126,
			"count":751,
			"type":"VEC3"
		},
		{
			"bufferView":2,
			"componentType":5126,
			"count":751,
			"type":"VEC2"
		},
		{
			"bufferView":3,
			"componentType":5123,
			"count":1143,
			"type":"SCALAR"
		}
	],
	"bufferViews":[
		{
			"buffer":0,
			"byteLength":9012,
			"byteOffset":0,
			"target":34962
		},
		{
			"buffer":0,
			"byteLength":9012,
			"byteOffset":9012,
			"target":34962
		},
		{
			"buffer":0,
			"byteLength":6008,
			"byteOffset":18024,
			"target":34962
		},
		{
			"buffer":0,
			"byteLength":2286,
			"byteOffset":24032,
			"target":34963
		}
	],
	"buffers":[
		{
			"byteLength":26320,
			"uri":"character.bin"
		}
	]
}
